<svg width="15" height="17" viewBox="0 0 15 17" xmlns="http://www.w3.org/2000/svg"><title>QQ默认</title><path d="M13.771 9.871a6.553 6.553 0 0 0-.812-1.441c.246-.19.417-.594.417-1.06 0-.647-.325-1.17-.729-1.18a5.58 5.58 0 0 0 .053-.759C12.7 2.432 10.25 0 7.227 0c-3.022 0-5.47 2.432-5.47 5.431 0 .29.02.571.065.849-.267.177-.456.597-.456 1.09 0 .284.062.545.169.75a6.19 6.19 0 0 0-.973 1.42c-.777 1.548-.66 3.11-.183 3.365.245.13.885-.279 1.512-1.04.102.894.525 1.711 1.174 2.37-1.074.318-1.786.943-1.69 1.58.119.806 1.478 1.32 3.039 1.152 1.14-.123 2.071-.579 2.444-1.13a7.024 7.024 0 0 0 .783-.011c.397.523 1.274.96 2.332 1.094 1.514.192 2.822-.302 2.923-1.105.08-.632-.61-1.267-1.647-1.602.609-.625 1.016-1.392 1.139-2.23.556.761 1.126 1.249 1.424 1.183.353-.077.604-1.722-.04-3.296" fill="#444" fill-rule="evenodd"/></svg>