<svg width="21" height="17" viewBox="0 0 21 17" xmlns="http://www.w3.org/2000/svg"><title>微博默认</title><path d="M16.829.101c-.704-.162-1.649-.13-2.833.097-.016 0-.032.008-.049.024l-.023.049-.024.023a.784.784 0 0 0-.433.303.829.829 0 0 0-.168.496c0 .242.08.444.241.605a.79.79 0 0 0 .576.243h.072a.562.562 0 0 0 .109-.025c.056-.015.116-.027.18-.036a1.18 1.18 0 0 0 .203-.048c.073-.024.137-.049.192-.073.056-.025.164-.037.324-.037.162 0 .357.012.589.037.231.024.487.085.768.181.28.096.561.217.84.363.28.146.56.347.84.605.281.258.525.556.733.895.415.951.496 1.871.24 2.759a.109.109 0 0 1-.013.048.858.858 0 0 0-.036.121 6.809 6.809 0 0 1-.048.181 1.935 1.935 0 0 0-.072.448c0 .144.04.265.12.362a.64.64 0 0 0 .3.206c.12.041.26.061.42.061.448 0 .712-.274.792-.824.192-.628.3-1.23.324-1.801a5.53 5.53 0 0 0-.12-1.513 4.892 4.892 0 0 0-.468-1.221 4.105 4.105 0 0 0-.72-.968 5.917 5.917 0 0 0-.912-.727 6.17 6.17 0 0 0-.972-.52 6.64 6.64 0 0 0-.973-.314zm.408 6.822a.495.495 0 0 0 .263-.072.602.602 0 0 0 .289-.411c.016-.016.023-.04.023-.073.193-1.84-.448-2.888-1.92-3.146a3.372 3.372 0 0 0-1.2-.024.49.49 0 0 0-.288.085.772.772 0 0 0-.204.217.56.56 0 0 0 .085.69.557.557 0 0 0 .407.169c1.249-.29 1.92.112 2.016 1.21.033.274.016.532-.048.775 0 .16.056.298.168.41.112.112.248.17.408.17zm-8.522 5.058a.529.529 0 0 1-.347.109c-.12-.008-.204-.06-.252-.157l-.049-.097a.222.222 0 0 1-.023-.097v-.097a.27.27 0 0 1 .023-.12l.049-.097a.16.16 0 0 1 .072-.073l.072-.096c.129-.098.252-.138.372-.121.12.016.203.08.252.193a.305.305 0 0 1 .06.218.593.593 0 0 1-.073.23.901.901 0 0 1-.156.205zm-2.04 1.742a1.09 1.09 0 0 1-.515-.036 2.748 2.748 0 0 1-.216-.085.502.502 0 0 1-.18-.133 2.519 2.519 0 0 1-.132-.17.722.722 0 0 1-.095-.193.722.722 0 0 1-.037-.23c0-.178.048-.351.144-.52.097-.17.229-.315.397-.437.167-.12.355-.19.563-.205.145-.017.284-.012.42.012a1.054 1.054 0 0 1 .6.314.628.628 0 0 1 .156.254.995.995 0 0 1 .048.315.922.922 0 0 1-.155.507 1.38 1.38 0 0 1-.42.412 1.226 1.226 0 0 1-.576.193l-.001.002zm.865-4.574c-.464.049-.88.158-1.248.328-.368.168-.656.362-.864.58a3.714 3.714 0 0 0-.528.701c-.145.25-.245.496-.3.738a4.639 4.639 0 0 0-.11.665 5.78 5.78 0 0 0-.023.472l.024.193v.097c0 .049.016.146.048.29.032.145.076.279.132.4a1.7 1.7 0 0 0 .276.4c.128.144.28.265.456.362 1.057.516 2.04.674 2.953.472a3.719 3.719 0 0 0 2.207-1.392 2.15 2.15 0 0 0 .444-1.016 2.875 2.875 0 0 0-.048-1.222 3.118 3.118 0 0 0-.54-1.124c-.255-.34-.636-.602-1.14-.787-.503-.186-1.083-.238-1.74-.157h.001zm.696 6.703c-1.728.08-3.196-.259-4.404-1.017-1.208-.758-1.812-1.718-1.812-2.879 0-1.145.6-2.133 1.8-2.964 1.2-.83 2.673-1.286 4.417-1.367 1.743-.08 3.215.209 4.416.87 1.2.663 1.8 1.566 1.8 2.711 0 1.16-.612 2.206-1.836 3.133-1.224.928-2.685 1.431-4.38 1.512l-.001.001zm7.32-7.525c-.24-.048-.396-.12-.467-.217-.072-.097-.085-.186-.036-.267l.071-.12a.279.279 0 0 0 .049-.073c.017-.032.048-.102.096-.207a1.77 1.77 0 0 0 .108-.314 3.01 3.01 0 0 0 .06-.386 1.626 1.626 0 0 0-.012-.437 1.87 1.87 0 0 0-.145-.447 1.493 1.493 0 0 0-.3-.435c-.224-.227-.516-.372-.877-.437a3.237 3.237 0 0 0-1.08-.012c-.36.056-.7.129-1.019.217a8.42 8.42 0 0 0-.792.254l-.312.146c-.16.049-.292.081-.396.096a.443.443 0 0 1-.372-.084c-.032-.024-.045-.081-.037-.17a3.026 3.026 0 0 1 .084-.532c.032-.138.056-.247.072-.327 0-.194-.012-.375-.036-.545a2.624 2.624 0 0 0-.156-.568 1.218 1.218 0 0 0-.348-.508 1.8 1.8 0 0 0-.576-.314c-.232-.08-.532-.105-.9-.072a5.233 5.233 0 0 0-1.248.29c-.56.193-1.128.48-1.705.858-.576.38-1.076.774-1.5 1.186-.423.411-.811.81-1.164 1.197-.352.387-.624.702-.816.944l-.264.387C1.009 8.123.618 8.818.36 9.51c-.256.695-.376 1.219-.36 1.573v.509a5.15 5.15 0 0 0 .709 2.08c.375.614.824 1.11 1.343 1.489.52.378 1.133.7 1.837.967s1.38.46 2.028.581c.65.121 1.333.205 2.053.254 1.184.097 2.412.004 3.684-.278a11.07 11.07 0 0 0 3.553-1.464c1.095-.693 1.867-1.525 2.316-2.492.271-.565.412-1.097.42-1.597.008-.5-.076-.908-.252-1.222a3.1 3.1 0 0 0-.685-.834 3.372 3.372 0 0 0-.791-.534 2.694 2.694 0 0 0-.66-.217v.002z" fill="#444" fill-rule="evenodd"/></svg>